<svg height='300px' width='300px'  fill="#000000" xmlns="http://www.w3.org/2000/svg" xmlns:xlink="http://www.w3.org/1999/xlink" version="1.1" x="0px" y="0px" viewBox="0 0 100 100" enable-background="new 0 0 100 100" xml:space="preserve"><g><path d="M32.9,33.7c-1.8,0-4.4,0.9-6.7,5.3c-0.5,1-0.1,2.2,0.8,2.7c1,0.5,2.2,0.1,2.7-0.8c1-2,2.2-3.1,3.2-3.1s2.2,1.2,3.2,3.1   c0.4,0.7,1,1.1,1.7,1.1c0.3,0,0.6-0.1,0.9-0.2c1-0.5,1.3-1.7,0.8-2.7C37.3,34.6,34.7,33.7,32.9,33.7z"></path><path d="M44.8,41.6c1,0.5,2.2,0.1,2.7-0.8c1-2,2.2-3.1,3.2-3.1c1,0,2.2,1.2,3.2,3.1c0.4,0.7,1,1.1,1.7,1.1c0.3,0,0.6-0.1,0.9-0.2   c1-0.5,1.3-1.7,0.8-2.7c-2.3-4.3-4.9-5.3-6.7-5.3s-4.4,0.9-6.7,5.3C43.5,39.9,43.9,41.1,44.8,41.6z"></path><path d="M78.2,61.9c-2.4-2.5-5.8-3.8-10.1-3.8c-4,0-8.6,1.8-11.2,5.5c-1.3-3.8-2.8-6.8-3.8-8.5c7.4-3.2,12.4-9.4,12.4-16.5   c0-12.9-3.8-22.7-10.9-28.2c-0.8-0.6-1.9-0.5-2.6,0.1c-2.2,2.1-4.2,6.5-5.4,9.7c-3.2-0.5-6.4-0.5-9.6,0c-1.3-3.2-3.3-7.6-5.4-9.7   c-0.7-0.7-1.8-0.7-2.6-0.1c-7.1,5.5-10.9,15.3-10.9,28.2c0,7.4,5.5,13.9,13.4,16.9c-2,4.8-6.9,17.4-6.9,28.4c0,4.2,5.5,6,17.7,6   l2.8,0c0.9,0,1.8,0,2.6,0c5.6,0,9.6-0.2,11.6-2l0.7,0c10.5-0.1,21.3-0.2,22-13C82.2,69.2,80.9,64.8,78.2,61.9z M22,38.6   C22,31,23.5,21,30,14.8c1.4,2.1,2.9,5.5,3.9,8.4c0.3,0.9,1.3,1.5,2.3,1.2c3.7-0.8,7.5-0.8,11.3,0c1,0.2,1.9-0.3,2.3-1.2   c1.1-2.9,2.5-6.3,3.9-8.4c6.5,6.2,7.9,16.2,7.9,23.8c0,8.2-8.9,14.9-19.8,14.9S22,46.8,22,38.6z M77.9,74.8   c-0.4,8.6-6.5,9.1-18.1,9.2l-1.6,0c-0.7,0-1.3,0.4-1.7,1c-0.8,1.1-7.3,1.1-11.6,1l-2.8,0C29.8,86,28.5,84,28.5,84   c0-10.5,5-23.1,6.8-27.2c2.1,0.5,4.3,0.7,6.5,0.7c2.6,0,5.2-0.4,7.6-1c1.3,2.2,4.3,7.9,5.8,15.8c1.5,7.7,7.8,7.7,9.9,7.7   c4.4,0,7.4-1.9,8.2-5.1c0.7-2.6-0.2-5.4-2.3-6.6c-1.8-1.1-4-0.9-5.8,0.7c-0.8,0.7-0.9,2-0.2,2.8c0.7,0.8,2,0.9,2.8,0.2   c0.4-0.4,0.8-0.5,1.1-0.3c0.5,0.3,0.8,1.2,0.5,2.3C69,75.6,66.8,76,65.1,76c-2.7,0-5.3-0.3-6-4.5c-0.1-0.6-0.2-1.2-0.4-1.8   c0.1-0.2,0.2-0.4,0.3-0.7c0.9-4.8,5.3-6.9,9.2-6.9c3.2,0,5.6,0.9,7.2,2.5C77.3,66.7,78.2,70.1,77.9,74.8z"></path></g></svg>