<?xml version="1.0" encoding="UTF-8"?>
<svg viewBox="0 0 256 256" xmlns="http://www.w3.org/2000/svg">
 <g transform="translate(0 -796.36)">
  <path d="m0 796.36h256v256h-256z" fill="#ccc"/>
  <g transform="matrix(1.2311 0 0 1.2311 66.255 -294.38)">
   <path d="m89.471 1065.9c3.7268 6.1263-0.48379 10.049-6.16 12.947-8.0302 4.0988-27.898 2.1019-34.7-2.0136-6.2427-3.777-9.0128-9.3495-6.0403-14.184" fill="#fff" stroke="#000" stroke-linecap="round" stroke-linejoin="round" stroke-width="4.0614"/>
   <path d="m21.354 1021c-0.85728 15.682 13.892 40.298 31.364 46.018 9.0218 2.9538 29.326 3.8464 36.494-1.431 12.273-9.0365 18.48-20.686 21.285-35.088 0.99446-5.1051 1.2473-10.936 0.95737-15.702-0.95222-15.651 12.951-53.666 11.882-57.677-2.9683-11.145-15.873-4.6143-18.563 2.5506-1.303 3.4704-13.856 27.808-13.93 23.149-0.18216-11.445 0.9768-25.243 2.8156-38.21 2.7516-19.404-24.341-14.513-26.731 3.6823-1.1198 8.5239-3.0565 15.509-5.109 34.59-3.1459-10.276-8.4312-25.036-10.205-35.24-2.9255-16.826-27.057-6.7396-23.048 13.758 2.7304 13.959 7.0695 24.243 9.7385 37.541-2.8062 2.259-16.056 5.6852-16.951 22.058z" fill="#fff" stroke="#000" stroke-linecap="round" stroke-linejoin="round" stroke-width="4.0614"/>
   <path d="m59.576 982.54c3.0369 12.661 7.4917 18.465 9.1495 21.42-2.1204-7.8868-2.8678-9.8306-4.494-18.415-0.2757-1.4554-0.35672-3.1981-0.11641-5.3248z"/>
   <path d="m88.815 982.97c0.12674 7.633 2.1115 16.807 4.9714 22.534-0.13108-4.1659-0.41858-11.323-0.74165-17.651-0.08762-1.7164 0.25366-3.2704 1.6609-5.2711-1.9266 0.5414-3.9113 0.38456-5.8906 0.3884z"/>
   <path d="m79.642 1058.3c4.0369-9.6783 3.976-12.465 5.1951-17.405" fill="none" stroke="#000" stroke-linecap="round" stroke-linejoin="round" stroke-width="4.0614"/>
   <path d="m70.26 1059c1.6922-11.475 1.4242-17.152 1.8555-24.898" fill="none" stroke="#000" stroke-linecap="round" stroke-linejoin="round" stroke-width="4.0614"/>
   <path d="m59.041 1059.5c0.0971-7.9806-0.59887-11.754-1.049-16.831" fill="none" stroke="#000" stroke-linecap="round" stroke-linejoin="round" stroke-width="4.0614"/>
   <path d="m36.025 998.02c3.8912 16.757-1.2012 23.343-4.5873 31.905 5.1449-8.8636 12.14-11.79 8.8407-31.439z"/>
  </g>
  <g transform="translate(540.5,-239)">
   <path d="m-442.9 1106.3c1.6396-10.931 21.509-18.813 31.663-9.5656-7.9924-18.015-37.025-4.705-31.663 9.5656z"/>
   <path d="m-454.92 1099.5c1.9262-30.335 32.962-35.95 48.982-14.798-15.559-36.92-59.718-14.194-48.982 14.798z"/>
   <path d="m-448.34 1100c3.5446-18.27 27.964-22.224 38.281-11.565-10.598-22.61-45.943-8.1782-38.281 11.565z"/>
  </g>
  <g transform="matrix(.96353 .26761 -.26761 .96353 876.03 -93.649)">
   <path d="m-442.9 1106.3c1.6396-10.931 21.509-18.813 31.663-9.5656-7.9924-18.015-37.025-4.705-31.663 9.5656z"/>
   <path d="m-454.92 1099.5c1.9262-30.335 32.962-35.95 48.982-14.798-15.559-36.92-59.718-14.194-48.982 14.798z"/>
   <path d="m-448.34 1100c3.5446-18.27 27.964-22.224 38.281-11.565-10.598-22.61-45.943-8.1782-38.281 11.565z"/>
  </g>
  <g transform="matrix(.7699 .63817 -.63817 .7699 1246.3 300.81)">
   <path d="m-442.9 1106.3c1.6396-10.931 21.509-18.813 31.663-9.5656-7.9924-18.015-37.025-4.705-31.663 9.5656z"/>
   <path d="m-454.92 1099.5c1.9262-30.335 32.962-35.95 48.982-14.798-15.559-36.92-59.718-14.194-48.982 14.798z"/>
   <path d="m-448.34 1100c3.5446-18.27 27.964-22.224 38.281-11.565-10.598-22.61-45.943-8.1782-38.281 11.565z"/>
  </g>
 </g>
</svg>
