<?xml version="1.0" encoding="UTF-8"?>
<svg viewBox="0 0 256 256" xmlns="http://www.w3.org/2000/svg">
 <g transform="translate(0 -796.36)">
  <path d="m0 796.36h256v256h-256z" fill="#ccc"/>
  <g transform="matrix(1.2311 0 0 1.2311 66.255 -294.38)">
   <path d="m89.471 1065.9c3.7268 6.1263-0.48379 10.049-6.16 12.947-8.0302 4.0988-27.898 2.1019-34.7-2.0136-6.2427-3.777-9.0128-9.3495-6.0403-14.184" fill="#fff" stroke="#000" stroke-linecap="round" stroke-linejoin="round" stroke-width="4.0614"/>
   <path d="m21.354 1021c-0.85728 15.682 13.892 40.298 31.364 46.018 9.0218 2.9538 29.326 3.8464 36.494-1.431 12.273-9.0365 18.48-20.686 21.285-35.088 0.99446-5.1051 1.707-10.986 0.95737-15.702-3.1898-20.064-14.951-20.048-19.514-20.76-2.7272-8.7246-12.699-15.044-26.068-12.391-0.1029-10.746 0.22553-17.365 1.1122-27.536 1.4832-17.013-27.986-20.845-26.491-0.0121 1.0183 14.187 0.02688 25.675-2.4993 39-3.4496 1.0381-15.746 11.529-16.641 27.901z" fill="#fff" stroke="#000" stroke-linecap="round" stroke-linejoin="round" stroke-width="4.0614"/>
   <path d="m63.838 981.04c0.0308 10.253 1.2148 18.225 7.2258 26.105-2.5091-6.5752-3.3692-19.666-3.1766-27.939z"/>
   <path d="m93.471 992.23-3.8091 1.4862c1.929 5.5768 4.0509 11.842 7.1137 15.183-1.0804-2.6051-2.0771-11.978-3.3046-16.669z"/>
   <path d="m79.642 1058.3c4.0369-9.6783 3.976-12.465 5.1951-17.405" fill="none" stroke="#000" stroke-linecap="round" stroke-linejoin="round" stroke-width="4.0614"/>
   <path d="m70.26 1059c1.6922-11.475 1.4242-17.152 1.8555-24.898" fill="none" stroke="#000" stroke-linecap="round" stroke-linejoin="round" stroke-width="4.0614"/>
   <path d="m59.041 1059.5c0.0971-7.9806-0.59887-11.754-1.049-16.831" fill="none" stroke="#000" stroke-linecap="round" stroke-linejoin="round" stroke-width="4.0614"/>
   <path d="m36.249 991.71c-1.7026 12.092-6.1967 31.682-4.8106 38.213 1.185-3.9899 8.356-33.636 9.1333-39.703z"/>
  </g>
  <g transform="matrix(.96353 .26761 -.26761 .96353 839.03 -85.649)">
   <path d="m-442.9 1106.3c1.6396-10.931 21.509-18.813 31.663-9.5656-7.9924-18.015-37.025-4.705-31.663 9.5656z"/>
  </g>
 </g>
</svg>
