<?xml version="1.0" encoding="UTF-8"?>
<svg viewBox="0 0 256 256" xmlns="http://www.w3.org/2000/svg">
 <g transform="translate(0 -796.36)">
  <path d="m0 796.36h256v256h-256z" fill="#ccc"/>
  <g transform="translate(180,-1900)">
   <path d="m-65 2754.7c-3.6094-6.3546-9.5256-10.399-14.944-14.944h8.479c-0.17515-4.39-1.5406-9.1763-2.477-13.82 7.5661 4.3684 10.554 1e-4 17.885 1e-4 -0.82601 4.6098-2.3912 8.9743-2.5088 13.82h8.5107c-5.6068 4.7738-11.545 9.435-14.945 14.944z"/>
   <path d="m-11 2745.7c-3.6094-6.3546-9.5256-10.399-14.944-14.944h8.479c-0.17515-4.39-1.5406-9.1763-2.477-13.82 7.5661 4.3684 10.554 1e-4 17.885 1e-4 -0.82601 4.6098-2.3912 8.9743-2.5088 13.82h8.5107c-5.6068 4.7738-11.545 9.435-14.945 14.944z"/>
   <g transform="matrix(1.2311 0 0 1.2311 -113.75 1605.6)">
    <path d="m89.471 1065.9c3.7268 6.1263-0.48379 10.049-6.16 12.947-8.0302 4.0988-27.898 2.1019-34.7-2.0136-6.2427-3.777-9.0128-9.3495-6.0403-14.184" fill="#fff" stroke="#000" stroke-linecap="round" stroke-linejoin="round" stroke-width="4.0614"/>
    <path d="m21.354 1021c-0.85728 15.682 13.892 40.298 31.364 46.018 9.0218 2.9538 29.326 3.8464 36.494-1.431 12.273-9.0365 18.48-20.686 21.285-35.088 0.99446-5.1051 1.707-10.986 0.95737-15.702-3.1898-20.064-15.206-18.231-19.677-19.386-1.9467-12.665-0.70534-32.556 1.882-50.802 2.7516-19.404-24.341-14.513-26.731 3.6823-1.1198 8.5239-3.0565 15.509-5.109 34.59-3.1459-10.276-8.4312-25.036-10.205-35.24-2.9255-16.826-27.057-6.7396-23.048 13.758 2.7304 13.959 7.0695 24.243 9.7385 37.541-2.8062 2.259-16.056 5.6852-16.951 22.058z" fill="#fff" stroke="#000" stroke-linecap="round" stroke-linejoin="round" stroke-width="4.0614"/>
    <path d="m59.576 982.54c3.0369 12.661 7.4917 18.465 9.1495 21.42-2.1204-7.8868-2.8678-9.8306-4.494-18.415-0.2757-1.4554-0.35672-3.1981-0.11641-5.3248z"/>
    <path d="m93.585 993.73-4.1137-0.29062c0.76134 6.9984 2.4669 9.3887 5.3267 15.116-0.16663-5.2958-0.7891-7.7078-1.213-14.825z"/>
    <path d="m79.642 1058.3c4.0369-9.6783 3.976-12.465 5.1951-17.405" fill="none" stroke="#000" stroke-linecap="round" stroke-linejoin="round" stroke-width="4.0614"/>
    <path d="m70.26 1059c1.6922-11.475 1.4242-17.152 1.8555-24.898" fill="none" stroke="#000" stroke-linecap="round" stroke-linejoin="round" stroke-width="4.0614"/>
    <path d="m59.041 1059.5c0.0971-7.9806-0.59887-11.754-1.049-16.831" fill="none" stroke="#000" stroke-linecap="round" stroke-linejoin="round" stroke-width="4.0614"/>
    <path d="m36.025 998.02c3.8912 16.757-1.2012 23.343-4.5873 31.905 5.1449-8.8636 12.14-11.79 8.8407-31.439z"/>
   </g>
  </g>
 </g>
</svg>
